{"glyphs":{"0":{"ha":575,"x_min":0,"x_max":506,"o":"m 428 233 l 428 711 l 106 131 q 128 103 115 115 q 252 50 178 50 q 377 103 326 50 q 428 233 428 156 m 76 714 l 76 236 l 399 817 q 378 844 390 832 q 252 897 326 897 q 127 844 178 897 q 76 714 76 792 m 485 813 q 506 714 506 765 l 506 233 q 431 55 506 129 q 253 -19 357 -19 q 68 61 142 -19 q 19 135 38 94 q 0 233 0 182 l 0 714 q 74 892 0 818 q 253 967 147 967 q 438 886 363 967 q 485 813 468 853 z "},"1":{"ha":246,"x_min":0,"x_max":178,"o":"m 176 947 l 176 0 l 96 0 l 96 799 q 0 771 53 771 l 0 847 q 69 876 42 847 q 96 947 96 906 l 176 947 z "},"2":{"ha":575,"x_min":0,"x_max":506,"o":"m 506 72 l 506 0 l 0 0 l 0 72 q 15 154 0 113 q 63 247 29 196 q 122 333 96 299 q 197 429 147 367 q 265 517 242 486 q 319 593 288 547 q 364 674 350 639 q 378 739 378 710 q 333 846 378 801 q 227 890 289 890 q 121 846 165 890 q 76 739 76 801 l 0 739 q 67 900 0 833 q 227 967 133 967 q 388 900 321 967 q 454 739 454 833 q 440 658 454 700 q 392 565 425 617 q 333 479 358 513 q 257 382 307 446 q 190 296 213 326 q 135 219 167 265 q 90 138 104 174 q 76 72 76 103 l 506 72 z "},"3":{"ha":575,"x_min":0,"x_max":506,"o":"m 454 947 l 454 857 l 204 625 l 253 625 q 431 551 357 625 q 506 372 506 478 l 506 233 q 431 55 506 129 q 252 -19 357 -19 q 74 55 147 -19 q 0 233 0 129 l 81 233 q 130 106 81 158 q 253 54 179 54 q 376 106 326 54 q 425 233 425 158 l 425 372 q 376 500 425 447 q 253 553 326 553 l 101 553 l 101 643 l 351 875 l 50 875 l 50 947 l 454 947 z "},"4":{"ha":625,"x_min":-1,"x_max":556,"o":"m 53 233 l 394 233 l 394 765 l 53 233 m 556 233 l 556 161 l 475 161 l 475 0 l 394 0 l 394 161 l 7 161 l 0 161 l 0 233 l 0 292 l 394 907 l 408 928 l 421 947 l 475 947 l 475 890 l 475 233 l 556 233 z "},"5":{"ha":575,"x_min":-1,"x_max":506,"o":"m 506 372 l 506 233 q 431 55 506 129 q 252 -19 357 -19 q 74 55 147 -19 q 0 233 0 129 l 81 233 q 131 108 81 160 q 253 57 181 57 q 375 108 325 57 q 425 233 425 160 l 425 372 q 375 497 425 446 q 253 549 325 549 l 50 553 l 63 625 l 104 875 l 115 947 l 454 947 l 454 875 l 182 875 l 140 625 l 253 625 q 431 551 357 625 q 506 372 506 478 z "},"6":{"ha":575,"x_min":0,"x_max":506,"o":"m 375 497 q 350 523 375 497 q 253 549 325 549 q 131 497 181 549 q 81 372 81 446 l 81 233 q 131 108 81 160 q 253 57 181 57 q 375 108 325 57 q 425 233 425 160 l 425 372 q 375 497 425 446 m 431 55 q 394 18 431 55 q 252 -19 357 -19 q 74 55 147 -19 q 0 233 0 129 l 0 372 q 51 668 0 450 q 101 947 101 879 l 178 947 q 126 651 178 869 q 107 565 113 594 q 253 625 163 625 q 431 551 357 625 q 506 372 506 478 l 506 233 q 431 55 506 129 z "},"7":{"ha":575,"x_min":0,"x_max":506,"o":"m 506 947 l 506 875 q 489 777 506 829 q 435 658 472 725 q 369 545 397 590 q 285 417 340 500 q 207 297 233 339 q 144 193 181 256 q 92 84 108 131 q 76 0 76 38 l 0 0 q 16 98 0 46 q 69 217 32 150 q 135 328 107 283 q 221 458 164 374 q 299 577 272 536 q 360 681 325 618 q 412 791 396 744 q 428 875 428 838 l 0 875 l 0 947 l 506 947 z "},"8":{"ha":575,"x_min":0,"x_max":506,"o":"m 425 242 l 425 335 q 374 465 425 411 q 252 519 324 519 q 131 465 181 519 q 81 335 81 411 l 81 242 q 131 111 81 165 q 252 57 181 57 q 374 111 324 57 q 425 242 425 165 m 155 847 q 134 825 155 847 q 114 742 114 803 q 155 639 114 682 q 253 596 196 596 q 350 639 310 596 q 390 743 390 682 q 350 847 390 804 q 253 890 310 890 q 155 847 196 890 m 344 557 q 461 465 417 529 q 506 322 506 401 l 506 233 q 431 55 506 129 q 252 -19 357 -19 q 74 55 147 -19 q 0 233 0 129 l 0 322 q 44 465 0 401 q 160 557 89 529 q 71 635 104 583 q 38 751 38 688 q 101 903 38 840 q 253 967 164 967 q 405 903 342 967 q 468 751 468 840 q 434 635 468 688 q 344 557 400 583 z "},"9":{"ha":575,"x_min":0,"x_max":506,"o":"m 131 450 q 156 424 131 450 q 253 399 181 399 q 375 450 325 399 q 425 575 425 501 l 425 714 q 375 839 425 788 q 253 890 325 890 q 131 839 181 890 q 81 714 81 788 l 81 575 q 131 450 81 501 m 74 892 q 110 930 74 892 q 252 967 147 967 q 431 892 357 967 q 506 714 506 818 l 506 575 q 453 279 506 497 q 404 0 404 68 l 328 0 q 379 296 328 78 q 399 382 392 353 q 253 322 342 322 q 74 396 147 322 q 0 575 0 469 l 0 714 q 74 892 0 818 z "},"\u0000":{"ha":903,"x_min":0,"x_max":0,"o":""},"\r":{"ha":357,"x_min":0,"x_max":0,"o":""}," ":{"ha":357,"x_min":0,"x_max":0,"o":""},"!":{"ha":208,"x_min":0,"x_max":140,"o":"m 20 99 q 30 109 20 99 q 69 119 40 119 q 119 99 99 119 q 139 51 139 79 q 119 1 139 22 q 69 -19 99 -19 q 20 1 40 -19 q 0 51 0 22 q 20 99 0 79 m 104 272 l 35 272 q 32 524 32 461 l 32 947 l 108 947 q 108 524 108 629 q 104 272 104 272 z "},"\"":{"ha":247,"x_min":0,"x_max":179,"o":"m 178 932 q 178 894 178 907 l 163 783 l 124 783 q 108 894 110 867 q 108 932 108 907 q 119 956 108 946 q 143 967 129 967 q 167 956 157 967 q 178 932 178 946 m 10 956 q 16 961 10 956 q 35 967 21 967 q 60 956 50 967 q 69 932 69 946 q 69 894 69 907 l 54 783 l 15 783 q 0 894 1 867 q 0 932 0 907 q 10 956 0 946 z "},"#":{"ha":878,"x_min":0,"x_max":808,"o":"m 517 358 l 517 589 l 290 589 l 290 358 l 517 358 m 808 589 l 594 589 l 594 358 l 808 358 l 808 286 l 594 286 l 594 0 l 517 0 l 517 286 l 290 286 l 290 0 l 214 0 l 214 286 l 0 286 l 0 358 l 214 358 l 214 589 l 0 589 l 0 661 l 214 661 l 214 947 l 290 947 l 290 661 l 517 661 l 517 947 l 594 947 l 594 661 l 808 661 l 808 589 z "},"$":{"ha":674,"x_min":-1,"x_max":604,"o":"m 518 183 q 526 235 526 208 q 519 285 526 261 q 460 367 504 336 q 454 371 458 368 q 449 374 450 374 l 438 381 l 408 394 l 351 424 l 343 428 l 343 64 q 353 65 350 65 q 408 79 382 71 q 433 90 421 85 l 446 97 q 451 99 447 97 q 457 103 454 101 q 518 183 501 133 m 214 578 l 263 554 l 263 893 q 233 888 247 892 q 221 885 225 886 q 208 881 208 881 q 185 869 196 875 q 119 793 139 843 q 113 692 100 743 q 167 606 125 639 q 176 599 176 599 q 188 592 188 592 l 193 589 l 196 586 l 200 585 l 214 578 m 592 308 q 603 234 604 272 q 590 158 603 196 q 499 39 565 83 q 483 29 497 39 q 467 21 481 28 q 433 7 450 14 q 365 -10 400 -4 q 343 -12 354 -11 l 343 -115 l 263 -115 l 263 -12 q 224 -7 244 -11 q 156 14 192 0 q 151 15 154 14 q 144 18 147 17 q 140 21 142 19 l 124 29 q 93 47 101 40 q 0 133 39 81 l 56 189 q 135 111 88 142 q 160 97 140 107 l 172 90 q 179 87 175 89 q 185 85 183 85 q 239 68 214 74 q 263 64 251 67 l 263 468 l 238 481 l 181 510 l 165 517 l 163 518 l 158 521 l 150 525 q 133 535 147 526 q 118 546 131 536 q 68 603 88 571 q 38 672 47 635 q 49 822 19 750 q 88 886 63 858 q 147 936 113 917 q 181 951 163 944 q 199 958 182 951 q 217 963 206 960 q 263 969 239 968 l 263 1033 l 343 1033 l 343 967 q 429 940 388 960 q 538 858 492 911 l 483 804 q 396 871 447 847 q 343 889 371 882 l 343 514 l 386 492 l 443 464 l 472 449 l 488 440 q 504 429 501 432 q 592 308 569 383 z "},"%":{"ha":767,"x_min":0,"x_max":697,"o":"m 606 947 l 697 947 l 92 0 l 0 0 l 606 947 m 393 239 q 415 261 393 239 q 500 283 438 283 q 607 239 563 283 q 651 132 651 194 q 607 25 651 69 q 500 -19 563 -19 q 393 25 438 -19 q 349 132 349 69 q 393 239 349 194 m 556 188 q 544 200 556 188 q 500 211 532 211 q 444 188 468 211 q 421 133 421 165 q 444 77 421 100 q 500 54 468 54 q 556 77 532 54 q 579 133 579 100 q 556 188 579 165 m 90 922 q 113 944 90 922 q 197 967 135 967 q 304 922 260 967 q 349 815 349 878 q 304 708 349 753 q 197 664 260 664 q 90 708 135 664 q 46 815 46 753 q 90 922 46 878 m 252 870 q 241 882 252 870 q 197 893 229 893 q 141 870 164 893 q 118 815 118 847 q 141 759 118 782 q 197 736 164 736 q 252 759 229 736 q 275 815 275 782 q 252 870 275 847 z "},"&":{"ha":811,"x_min":0,"x_max":742,"o":"m 450 71 q 551 144 510 96 l 468 268 l 283 561 q 136 473 194 542 q 76 314 78 404 q 76 310 76 311 q 78 294 76 301 q 79 269 78 282 q 82 257 81 263 q 83 251 82 256 q 86 240 85 247 q 89 229 88 236 q 92 225 90 228 q 188 99 119 147 q 344 50 257 50 q 408 57 376 50 q 413 58 411 58 q 417 60 414 58 q 421 60 418 60 q 425 63 424 61 q 428 63 426 63 q 430 63 429 63 q 433 65 431 64 q 436 65 435 65 q 444 69 440 67 q 450 71 449 71 m 243 853 q 222 832 243 853 q 201 748 201 810 q 243 642 201 686 q 344 599 285 599 q 445 642 403 599 q 488 748 488 686 q 445 853 488 810 q 344 897 403 897 q 243 853 285 897 m 742 0 l 649 0 l 596 79 q 344 -19 493 -19 q 101 72 201 -19 q 0 290 0 163 q 70 477 0 394 q 250 588 140 560 q 159 660 193 611 q 125 767 125 708 q 189 908 125 850 q 344 967 253 967 q 499 908 435 967 q 564 767 564 850 q 529 660 564 708 q 438 588 494 611 q 344 568 393 568 l 343 568 q 340 568 343 568 q 338 568 338 568 l 532 311 l 594 218 q 611 289 608 253 l 688 289 q 646 142 688 211 l 742 0 z "},"'":{"ha":139,"x_min":0,"x_max":71,"o":"m 69 932 q 69 894 69 907 l 54 783 l 15 783 q 0 894 1 867 q 0 932 0 907 q 10 956 0 946 q 35 967 21 967 q 60 956 50 967 q 69 932 69 946 z "},"(":{"ha":221,"x_min":0,"x_max":153,"o":"m 151 890 q 102 869 122 890 q 81 818 82 849 l 81 132 q 101 79 81 101 q 151 57 121 57 l 151 -19 q 78 0 113 -19 q 21 55 42 19 q 0 132 0 90 l 0 815 q 21 892 0 857 q 78 947 42 928 q 151 967 113 967 l 151 890 z "},")":{"ha":221,"x_min":-1,"x_max":153,"o":"m 0 890 l 0 967 q 74 947 40 967 q 131 892 110 928 q 151 815 151 857 l 151 132 q 131 55 151 90 q 74 0 110 19 q 0 -19 40 -19 l 0 57 q 51 79 31 57 q 71 132 71 101 l 71 819 q 49 869 69 849 q 0 890 29 890 z "},"*":{"ha":372,"x_min":0,"x_max":304,"o":"m 303 772 l 228 772 l 204 774 l 221 758 l 275 706 l 242 672 l 189 726 l 174 743 l 175 719 l 175 644 l 129 644 l 129 719 l 129 743 l 114 726 l 61 672 l 28 706 l 82 758 l 99 774 l 76 772 l 0 772 l 0 819 l 76 819 l 99 818 l 82 833 l 28 886 l 61 919 l 114 865 l 129 849 l 129 871 l 129 947 l 175 947 l 175 871 l 174 849 l 189 865 l 242 919 l 275 886 l 221 833 l 204 818 l 228 819 l 303 819 l 303 772 z "},"+":{"ha":407,"x_min":0,"x_max":338,"o":"m 338 524 l 338 451 l 207 451 l 207 319 l 131 319 l 131 451 l 0 451 l 0 524 l 131 524 l 131 657 l 207 657 l 207 524 l 338 524 z "},",":{"ha":160,"x_min":0,"x_max":90,"o":"m 69 46 q 85 25 79 38 q 90 -6 90 13 q 83 -44 90 -25 q 62 -79 76 -62 q 25 -106 47 -96 l 0 -83 q 28 -68 17 -78 q 51 -46 46 -54 q 58 -17 58 -35 q 46 -19 53 -19 q 20 -9 31 -19 q 10 17 10 1 q 20 42 10 32 q 46 53 31 53 q 47 53 47 53 q 69 46 61 53 z "},"-":{"ha":407,"x_min":0,"x_max":338,"o":"m 338 451 l 0 451 l 0 524 l 338 524 l 338 451 z "},".":{"ha":142,"x_min":0,"x_max":72,"o":"m 72 17 q 49 -17 72 -8 q 36 -19 43 -19 q 10 -9 21 -19 q 0 17 0 1 q 10 42 0 32 q 36 53 21 53 q 38 53 38 53 q 63 41 53 51 q 72 17 72 31 z "},"/":{"ha":596,"x_min":0,"x_max":526,"o":"m 526 947 l 85 0 l 0 0 l 442 947 l 526 947 z "},":":{"ha":142,"x_min":-1,"x_max":72,"o":"m 38 53 q 63 41 53 51 q 72 17 72 31 q 49 -17 72 -8 q 36 -19 43 -19 q 10 -9 21 -19 q 0 17 0 1 q 10 42 0 32 q 36 53 21 53 q 38 53 38 53 m 36 593 q 10 603 21 593 q 0 629 0 614 q 10 655 0 644 q 36 665 21 665 q 38 665 38 665 q 63 653 53 664 q 72 629 72 643 q 49 596 72 604 q 36 593 43 593 z "},";":{"ha":160,"x_min":0,"x_max":90,"o":"m 46 593 q 20 603 31 593 q 10 629 10 614 q 20 655 10 644 q 46 665 31 665 q 47 665 47 665 q 71 653 61 664 q 81 629 81 643 q 58 596 81 604 q 46 593 53 593 m 69 46 q 85 25 79 38 q 90 -6 90 13 q 83 -44 90 -25 q 62 -79 76 -62 q 25 -106 47 -96 l 0 -83 q 28 -68 17 -78 q 51 -46 46 -54 q 58 -17 58 -35 q 46 -19 53 -19 q 20 -9 31 -19 q 10 17 10 1 q 20 42 10 32 q 46 53 31 53 q 47 53 47 53 q 69 46 61 53 z "},"<":{"ha":458,"x_min":-1,"x_max":389,"o":"m 121 404 l 389 203 l 336 151 l 61 358 l 0 404 l 61 450 l 336 657 l 389 604 l 121 404 z "},"=":{"ha":407,"x_min":0,"x_max":338,"o":"m 0 396 l 0 468 l 338 468 l 338 396 l 0 396 m 0 657 l 338 657 l 338 583 l 0 583 l 0 657 z "},">":{"ha":458,"x_min":0,"x_max":389,"o":"m 267 404 l 0 604 l 51 657 l 328 450 l 389 404 l 328 358 l 51 151 l 0 203 l 267 404 z "},"?":{"ha":575,"x_min":0,"x_max":506,"o":"m 506 694 q 444 517 506 593 q 293 426 383 442 l 293 271 l 213 271 l 213 460 q 224 488 213 476 q 251 500 236 500 l 253 500 q 293 504 272 500 q 390 573 351 519 q 428 694 428 626 q 376 832 428 775 q 253 889 325 889 q 133 837 183 889 q 78 708 82 785 l 0 694 q 74 887 0 807 q 252 967 147 967 q 431 887 357 967 q 506 694 506 807 m 260 119 q 203 99 226 122 q 183 43 179 76 q 203 1 186 18 q 246 -19 221 -17 q 301 1 278 -22 q 322 57 325 24 q 302 99 319 82 q 260 119 285 117 z "},"@":{"ha":1061,"x_min":0,"x_max":992,"o":"m 721 276 l 721 376 q 649 533 721 468 q 472 599 576 599 q 297 533 369 599 q 228 376 228 468 l 228 276 q 297 119 228 185 q 472 54 369 54 q 649 119 576 54 q 721 276 721 185 m 247 862 q 304 895 247 862 q 496 928 361 928 q 744 862 631 928 q 925 681 858 796 q 992 432 992 567 l 992 -1 q 952 -98 992 -58 q 856 -137 913 -137 q 760 -98 800 -137 q 721 -1 721 -58 l 721 93 q 611 10 676 40 q 472 -19 546 -19 q 245 67 339 -19 q 151 276 151 154 l 151 376 q 245 585 151 499 q 472 672 339 672 q 611 642 546 672 q 721 560 676 611 l 721 657 l 797 657 l 797 -1 q 813 -49 797 -31 q 856 -68 829 -68 q 899 -49 883 -68 q 914 -1 914 -31 l 914 432 q 797 735 914 617 q 496 860 672 860 q 194 735 319 860 q 76 432 76 617 l 76 219 q 194 -81 76 36 q 496 -199 311 -199 l 572 -275 l 496 -275 q 247 -209 361 -275 q 66 -28 132 -143 q 0 219 0 86 l 0 432 q 67 681 0 567 q 247 862 133 796 z "},"A":{"ha":769,"x_min":-1,"x_max":700,"o":"m 183 308 l 517 308 l 350 807 l 183 308 m 383 947 l 700 0 l 618 0 l 600 57 l 540 235 l 160 235 l 100 57 l 81 0 l 0 0 l 315 947 l 383 947 z "},"B":{"ha":679,"x_min":-1,"x_max":610,"o":"m 304 69 q 471 138 401 69 q 540 304 540 207 q 471 471 540 401 q 304 540 401 540 l 72 540 l 72 69 l 304 69 m 415 649 q 434 668 415 649 q 454 744 454 688 q 415 839 454 800 q 319 878 375 878 l 72 878 l 72 610 l 304 610 l 319 610 q 415 649 375 610 m 439 578 q 563 467 515 540 q 610 304 610 393 q 520 89 610 178 q 304 0 431 0 l 0 0 l 0 0 l 0 947 l 0 947 l 319 947 q 464 888 404 947 q 524 743 524 828 q 501 650 524 693 q 439 578 478 607 z "},"C":{"ha":683,"x_min":-1,"x_max":614,"o":"m 367 57 q 560 125 476 57 l 614 69 q 367 -19 508 -19 q 108 79 215 -19 q 0 322 0 179 l 0 600 q 108 859 0 751 q 367 967 215 967 q 614 871 508 967 l 560 817 q 367 890 476 890 q 162 805 247 890 q 76 600 76 719 l 76 322 q 162 135 76 213 q 367 57 247 57 z "},"D":{"ha":664,"x_min":0,"x_max":594,"o":"m 517 368 l 517 579 q 431 785 517 700 q 225 871 346 871 l 81 871 l 81 76 l 225 76 q 431 162 346 76 q 517 368 517 247 m 225 947 q 486 840 378 947 q 594 579 594 732 l 594 368 q 486 108 594 215 q 225 0 378 0 l 81 0 l 0 0 l 0 947 l 15 947 l 225 947 z "},"E":{"ha":644,"x_min":0,"x_max":575,"o":"m 81 72 l 575 72 l 575 0 l 0 0 l 0 947 l 524 947 l 524 875 l 81 875 l 81 561 l 474 561 l 474 488 l 81 488 l 81 72 z "},"F":{"ha":544,"x_min":0,"x_max":476,"o":"m 475 875 l 81 875 l 81 510 l 425 510 l 425 438 l 81 438 l 81 0 l 0 0 l 0 875 l 0 928 l 0 947 l 475 947 l 475 875 z "},"G":{"ha":683,"x_min":3,"x_max":617,"o":"m 369 438 l 369 510 l 617 510 l 617 474 l 617 438 l 617 196 l 617 76 q 536 21 581 43 q 369 -19 458 -19 q 110 88 218 -19 q 3 347 3 196 l 3 625 q 111 868 3 768 q 369 967 218 967 q 617 878 513 967 l 563 822 q 369 890 479 890 q 165 813 250 890 q 79 625 79 735 l 79 347 q 165 142 79 228 q 369 57 250 57 q 536 110 461 57 l 536 438 l 369 438 z "},"H":{"ha":818,"x_min":0,"x_max":750,"o":"m 668 947 l 749 947 l 749 0 l 668 0 l 668 488 l 81 488 l 81 0 l 0 0 l 0 947 l 81 947 l 81 561 l 668 561 l 668 947 z "},"I":{"ha":150,"x_min":0,"x_max":81,"o":"m 81 0 l 0 0 l 0 947 l 81 947 l 81 0 z "},"J":{"ha":393,"x_min":-1,"x_max":325,"o":"m 324 947 l 324 171 q 268 36 324 92 q 134 -19 213 -19 q 0 36 56 -19 l 54 90 q 135 57 88 57 q 212 90 181 57 q 243 171 243 124 l 243 947 l 324 947 z "},"K":{"ha":719,"x_min":-1,"x_max":650,"o":"m 650 0 l 542 0 l 81 461 l 81 0 l 0 0 l 0 544 l 0 554 l 0 947 l 81 947 l 81 635 l 393 947 l 496 947 l 99 550 l 650 0 z "},"L":{"ha":544,"x_min":0,"x_max":476,"o":"m 81 72 l 475 72 l 475 0 l 81 0 l 21 0 l 0 0 l 0 947 l 81 947 l 81 72 z "},"M":{"ha":1168,"x_min":0,"x_max":1099,"o":"m 1099 0 l 1019 0 l 846 785 l 585 0 l 515 0 l 297 785 l 79 0 l 0 0 l 263 947 l 332 947 l 553 150 l 819 947 l 888 947 l 1099 0 z "},"N":{"ha":667,"x_min":0,"x_max":599,"o":"m 597 947 l 597 0 l 543 0 l 517 43 l 81 757 l 81 0 l 0 0 l 0 947 l 54 947 l 81 904 l 517 190 l 517 947 l 597 947 z "},"O":{"ha":853,"x_min":-1,"x_max":785,"o":"m 172 149 q 217 103 172 149 q 392 57 263 57 q 613 149 522 57 q 703 372 703 242 l 703 575 q 613 798 703 706 q 392 890 522 890 q 172 798 263 890 q 81 575 81 706 l 81 372 q 172 149 81 242 m 115 851 q 172 909 115 851 q 392 967 229 967 q 669 851 554 967 q 783 575 783 736 l 783 372 q 669 96 783 211 q 392 -19 554 -19 q 115 96 229 -19 q 0 372 0 211 l 0 575 q 115 851 0 736 z "},"P":{"ha":615,"x_min":0,"x_max":546,"o":"m 324 582 q 426 624 383 582 q 468 726 468 667 q 426 828 468 786 q 324 871 383 871 l 81 871 l 81 582 l 324 582 m 324 947 q 481 883 415 947 q 546 726 546 818 q 481 570 546 635 q 324 506 415 506 l 81 506 l 81 0 l 0 0 l 0 506 l 0 582 l 0 871 l 0 947 l 81 947 l 324 947 z "},"Q":{"ha":853,"x_min":0,"x_max":785,"o":"m 392 0 l 379 0 q 115 107 225 4 q 0 367 0 214 l 0 575 q 115 851 0 736 q 392 967 229 967 q 669 851 554 967 q 783 575 783 736 l 783 367 q 668 107 783 214 q 626 72 649 88 l 783 72 l 783 0 l 392 0 m 172 161 q 217 119 172 161 q 392 76 263 76 q 613 161 522 76 q 703 367 703 246 l 703 575 q 613 798 703 706 q 392 890 522 890 q 172 798 263 890 q 81 575 81 706 l 81 367 q 172 161 81 246 m 392 0 q 379 0 386 0 q 392 0 386 0 z "},"R":{"ha":646,"x_min":0,"x_max":578,"o":"m 81 582 l 324 582 q 426 624 383 582 q 468 726 468 667 q 426 828 468 786 q 324 871 383 871 l 81 871 l 81 582 m 282 436 l 576 0 l 485 0 l 432 76 l 300 274 l 246 354 l 224 388 l 167 469 l 143 506 l 81 506 l 81 0 l 0 0 l 0 947 l 324 947 q 481 883 415 947 q 546 726 546 818 q 481 570 546 635 q 324 506 415 506 l 236 506 l 282 436 z "},"S":{"ha":674,"x_min":0,"x_max":604,"o":"m 592 304 q 603 228 604 267 q 590 154 603 190 q 499 35 565 79 q 483 25 497 33 q 467 17 481 24 q 433 3 450 10 q 365 -14 400 -8 q 329 -18 349 -17 q 294 -19 308 -19 q 224 -11 261 -18 q 156 10 192 -6 q 151 11 154 10 q 144 14 147 13 q 140 17 142 15 l 124 24 q 93 42 101 36 q 0 129 39 76 l 56 185 q 135 107 88 136 q 160 92 140 103 l 172 86 q 179 83 175 85 q 185 81 183 81 q 239 64 214 69 q 296 58 271 58 q 325 58 306 57 q 353 61 340 60 q 408 75 382 67 q 433 86 421 81 l 446 92 q 451 95 447 93 q 457 99 454 97 q 518 179 501 129 q 526 230 526 204 q 519 281 526 256 q 460 363 504 332 q 454 367 458 364 q 449 369 450 369 l 438 376 l 408 390 l 351 419 l 238 476 l 181 504 l 165 513 l 163 514 l 158 515 l 150 521 q 133 531 147 522 q 118 542 131 532 q 68 599 88 565 q 38 668 47 631 q 49 817 19 744 q 88 882 63 853 q 147 931 113 913 q 181 947 163 940 q 199 953 182 947 q 217 958 206 956 q 289 967 251 967 q 429 936 363 967 q 538 854 492 907 l 483 799 q 396 867 447 843 q 289 890 346 890 q 233 883 261 890 q 221 881 225 882 q 208 876 208 876 q 185 865 196 871 q 119 789 139 839 q 113 686 100 739 q 167 601 125 635 q 176 594 176 594 q 188 588 188 588 l 193 583 l 196 582 l 200 581 l 214 574 l 271 544 l 386 488 l 443 458 l 472 444 l 488 436 q 504 425 501 428 q 592 304 569 379 z "},"T":{"ha":675,"x_min":0,"x_max":607,"o":"m 606 947 l 606 875 l 343 875 l 343 0 l 263 0 l 263 875 l 0 875 l 0 947 l 606 947 z "},"U":{"ha":751,"x_min":0,"x_max":683,"o":"m 682 322 q 582 81 682 181 q 341 -19 482 -19 q 100 81 200 -19 q 0 322 0 181 l 0 947 l 81 947 l 81 322 q 156 135 81 213 q 341 57 232 57 q 526 135 450 57 q 601 322 601 213 l 601 947 l 682 947 l 682 322 z "},"V":{"ha":717,"x_min":0,"x_max":649,"o":"m 647 947 l 358 0 l 289 0 l 0 947 l 81 947 l 324 150 l 567 947 l 647 947 z "},"W":{"ha":1272,"x_min":0,"x_max":1203,"o":"m 1203 947 l 888 0 l 818 0 l 597 797 l 332 0 l 263 0 l 0 947 l 79 947 l 301 150 l 567 947 l 635 947 l 857 150 l 1122 947 l 1203 947 z "},"X":{"ha":738,"x_min":0,"x_max":669,"o":"m 379 474 l 668 0 l 579 0 l 335 400 l 90 0 l 0 0 l 289 474 l 0 947 l 90 947 l 335 547 l 579 947 l 668 947 l 379 474 z "},"Y":{"ha":786,"x_min":-1,"x_max":717,"o":"m 717 947 l 399 392 l 399 0 l 318 0 l 318 392 l 0 947 l 89 947 l 358 475 l 628 947 l 717 947 z "},"Z":{"ha":575,"x_min":-1,"x_max":506,"o":"m 506 849 l 74 72 l 506 72 l 506 0 l 0 0 l 0 99 l 431 875 l 50 875 l 50 947 l 506 947 l 506 849 z "},"[":{"ha":261,"x_min":0,"x_max":193,"o":"m 192 875 l 81 875 l 81 72 l 192 72 l 192 0 l 81 0 l 40 0 l 0 0 l 0 947 l 40 947 l 81 947 l 192 947 l 192 875 z "},"\\":{"ha":596,"x_min":0,"x_max":526,"o":"m 0 947 l 85 947 l 526 0 l 442 0 l 0 947 z "},"]":{"ha":261,"x_min":0,"x_max":193,"o":"m 0 875 l 0 947 l 111 947 l 151 947 l 192 947 l 192 0 l 151 0 l 111 0 l 0 0 l 0 72 l 111 72 l 111 875 l 0 875 z "},"^":{"ha":476,"x_min":-1,"x_max":408,"o":"m 407 694 l 317 694 l 204 844 l 92 694 l 0 694 l 158 906 l 204 967 l 249 906 l 407 694 z "},"_":{"ha":474,"x_min":0,"x_max":404,"o":"m 404 -69 l 0 -69 l 0 0 l 404 0 l 404 -69 z "},"a":{"ha":715,"x_min":-1,"x_max":647,"o":"m 569 278 l 569 379 q 497 535 569 469 q 321 601 425 601 q 146 535 218 601 q 76 379 76 469 l 76 278 q 146 122 76 186 q 321 56 218 56 q 497 122 425 56 q 569 278 569 186 m 569 657 l 646 657 l 646 0 l 569 0 l 569 94 q 460 13 525 43 q 321 -17 394 -17 q 94 69 188 -17 q 0 278 0 156 l 0 379 q 94 587 0 500 q 321 674 188 674 q 460 644 394 674 q 569 561 525 614 l 569 657 z "},"b":{"ha":714,"x_min":-1,"x_max":644,"o":"m 149 137 q 185 97 149 137 q 322 57 221 57 q 496 137 424 57 q 568 328 568 217 q 550 431 568 382 q 499 518 532 479 q 418 579 464 557 q 322 601 372 601 l 321 601 q 225 579 271 601 q 144 519 179 558 q 92 431 110 481 q 76 328 76 392 q 149 137 76 217 m 621 456 q 644 328 644 394 q 550 83 644 185 q 322 -19 456 -19 q 186 13 250 -19 q 76 104 122 46 l 76 0 l 0 0 l 0 908 l 76 908 l 76 549 q 92 567 83 558 q 194 644 136 617 q 322 674 256 674 q 450 646 389 674 q 554 568 510 618 q 621 456 597 519 z "},"c":{"ha":593,"x_min":-1,"x_max":525,"o":"m 415 72 q 471 101 444 83 l 524 49 q 440 3 486 19 q 322 -17 383 -18 q 204 3 261 -18 q 100 64 146 25 q 26 161 53 106 q 0 279 0 218 l 0 353 q 25 476 0 418 q 95 580 50 535 q 200 650 140 625 q 322 674 258 674 q 444 650 386 674 q 524 603 488 632 l 471 550 q 417 582 446 569 q 322 601 371 600 q 227 581 272 600 q 148 528 182 563 q 94 447 114 493 q 76 354 76 403 l 76 279 q 96 193 76 235 q 150 121 115 151 q 229 72 185 89 q 322 56 274 56 q 415 72 371 56 z "},"d":{"ha":714,"x_min":-1,"x_max":644,"o":"m 76 328 q 149 137 76 217 q 322 57 221 57 q 496 137 424 57 q 568 328 568 217 q 553 431 567 392 q 500 519 535 481 q 419 579 465 558 q 324 601 374 601 l 322 601 q 226 579 272 601 q 146 518 181 557 q 94 431 113 479 q 76 328 76 382 m 0 328 q 24 456 0 394 q 90 568 46 519 q 194 646 135 618 q 322 674 256 674 q 449 644 389 674 q 553 567 508 617 q 568 549 560 558 l 568 908 l 644 908 l 644 0 l 568 0 l 568 104 q 458 13 522 46 q 322 -19 394 -19 q 94 83 189 -19 q 0 328 0 185 z "},"e":{"ha":714,"x_min":0,"x_max":644,"o":"m 147 535 q 76 388 81 474 l 568 388 q 524 506 564 453 q 497 535 513 521 q 322 601 425 601 q 147 535 219 601 m 644 379 l 644 319 l 625 319 l 76 319 l 76 279 q 147 122 76 188 q 322 56 219 56 q 471 101 406 56 l 524 49 q 322 -17 436 -17 q 94 70 189 -17 q 0 279 0 157 l 0 379 q 94 587 0 500 q 322 674 189 674 q 524 608 436 674 q 610 510 578 568 q 644 388 642 453 q 644 379 644 385 z "},"f":{"ha":394,"x_min":0,"x_max":326,"o":"m 325 818 l 272 764 q 240 804 263 789 q 190 819 217 819 q 130 794 154 819 q 106 732 106 769 l 106 494 l 239 494 l 239 426 l 106 426 l 106 0 l 29 0 l 29 426 l 0 426 l 0 494 l 29 494 l 29 732 q 76 846 29 799 q 190 893 124 893 q 268 873 232 893 q 325 818 304 853 z "},"g":{"ha":714,"x_min":-1,"x_max":644,"o":"m 322 56 q 373 56 322 56 q 496 128 424 56 q 568 303 568 200 l 568 353 q 496 528 568 456 q 322 601 424 601 q 149 528 221 601 q 76 353 76 456 l 76 303 q 149 128 76 200 q 322 56 221 56 m 568 657 l 644 657 l 644 353 l 644 303 l 644 25 q 549 -183 644 -97 q 322 -269 454 -269 q 92 -179 186 -269 l 143 -128 q 322 -197 217 -197 q 496 -132 424 -197 q 568 25 568 -67 l 568 96 q 458 13 522 43 q 322 -18 394 -18 q 94 76 189 -18 q 0 303 0 171 l 0 353 q 94 580 0 486 q 322 674 189 674 q 458 643 394 674 q 568 560 522 613 l 568 657 z "},"h":{"ha":611,"x_min":0,"x_max":542,"o":"m 542 404 l 542 0 l 465 0 l 465 404 q 409 544 465 486 q 272 601 353 601 q 133 544 190 601 q 76 404 76 486 l 76 0 l 0 0 l 0 908 l 76 908 l 76 561 q 272 674 140 674 q 463 594 383 674 q 542 404 542 515 z "},"i":{"ha":179,"x_min":0,"x_max":111,"o":"m 16 910 q 24 918 16 910 q 55 926 32 926 q 94 910 78 926 q 110 872 110 894 q 94 832 110 849 q 55 815 78 815 q 16 832 32 815 q 0 872 0 849 q 16 910 0 894 m 17 0 l 17 657 l 93 657 l 93 0 l 17 0 z "},"j":{"ha":215,"x_min":-1,"x_max":147,"o":"m 0 588 l 0 657 l 128 657 l 128 -181 q 102 -241 128 -214 q 19 -268 76 -268 l 19 -215 q 42 -206 33 -215 q 50 -181 50 -196 l 50 588 l 0 588 m 49 910 q 57 918 49 910 q 89 926 65 926 q 129 910 113 926 q 146 869 146 893 q 129 829 146 846 q 89 813 113 813 q 49 829 65 813 q 32 869 32 846 q 49 910 32 893 z "},"k":{"ha":542,"x_min":0,"x_max":472,"o":"m 111 406 l 472 0 l 374 0 l 76 335 l 76 0 l 0 0 l 0 908 l 76 908 l 76 469 l 242 657 l 335 657 l 111 406 z "},"l":{"ha":208,"x_min":0,"x_max":140,"o":"m 139 14 l 139 -17 l 108 -19 q 0 49 0 -19 l 0 957 l 76 957 l 76 49 q 85 25 76 35 q 108 15 94 15 l 139 14 z "},"m":{"ha":1017,"x_min":-1,"x_max":949,"o":"m 947 429 l 947 0 l 871 0 l 871 429 q 819 564 871 507 q 693 621 768 621 q 565 564 618 621 q 513 429 513 507 l 513 429 l 513 0 l 435 0 l 435 429 l 436 429 l 435 429 q 383 564 435 507 q 256 621 331 621 q 128 564 181 621 q 76 429 76 507 l 76 0 l 0 0 l 0 657 l 76 657 l 76 581 q 246 674 133 674 q 384 631 322 674 q 474 519 446 589 q 563 631 501 589 q 701 674 625 674 q 875 602 803 674 q 947 429 947 531 z "},"n":{"ha":611,"x_min":0,"x_max":542,"o":"m 542 404 l 542 0 l 465 0 l 465 404 q 409 544 465 486 q 272 601 353 601 q 133 544 190 601 q 76 404 76 486 l 76 0 l 0 0 l 0 657 l 76 657 l 76 561 q 272 674 140 674 q 463 594 383 674 q 542 404 542 515 z "},"o":{"ha":714,"x_min":0,"x_max":644,"o":"m 568 303 l 568 353 q 496 528 568 456 q 322 601 424 601 q 148 528 219 601 q 76 353 76 456 l 76 303 q 148 128 76 200 q 322 56 219 56 q 496 128 424 56 q 568 303 568 200 m 94 580 q 142 627 94 580 q 322 674 189 674 q 549 580 454 674 q 644 353 644 486 l 644 303 q 549 77 644 171 q 322 -17 454 -17 q 94 77 189 -17 q 0 303 0 171 l 0 353 q 94 580 0 486 z "},"p":{"ha":714,"x_min":0,"x_max":644,"o":"m 568 328 q 496 519 568 440 q 322 599 424 599 q 149 519 221 599 q 76 328 76 440 q 92 225 76 264 q 144 138 110 176 q 225 76 179 99 q 321 56 271 56 l 322 56 q 418 78 372 56 q 499 139 464 99 q 550 226 532 176 q 568 328 568 275 m 644 328 q 621 200 644 261 q 554 89 597 138 q 450 11 510 39 q 322 -17 389 -18 q 194 11 256 -17 q 92 90 136 39 q 76 108 83 99 l 76 -253 l 0 -253 l 0 657 l 76 657 l 76 553 q 186 642 122 610 q 322 675 250 675 q 550 574 456 675 q 644 328 644 472 z "},"q":{"ha":714,"x_min":0,"x_max":644,"o":"m 496 519 q 460 559 496 519 q 322 599 424 599 q 149 519 221 599 q 76 328 76 440 q 94 226 76 275 q 146 139 113 176 q 226 78 181 99 q 322 56 272 56 l 324 56 q 419 76 374 56 q 500 138 465 99 q 553 225 535 176 q 568 328 567 264 q 496 519 568 440 m 24 200 q 0 328 0 261 q 94 574 0 472 q 322 675 189 675 q 458 642 394 675 q 568 553 522 610 l 568 657 l 644 657 l 644 -253 l 568 -253 l 568 108 q 553 90 560 99 q 449 11 508 39 q 322 -17 389 -17 q 194 11 256 -18 q 90 89 135 39 q 24 200 46 138 z "},"r":{"ha":342,"x_min":0,"x_max":272,"o":"m 76 561 q 272 674 140 674 l 272 593 q 133 539 190 593 q 76 404 76 485 l 76 0 l 0 0 l 0 657 l 76 657 l 76 561 z "},"s":{"ha":469,"x_min":0,"x_max":400,"o":"m 400 185 q 371 83 400 129 q 293 10 342 36 q 288 6 292 8 q 282 3 285 4 q 275 0 278 1 q 274 -1 275 0 q 272 -1 272 -1 q 271 -1 272 -1 q 267 -3 271 -1 q 265 -3 267 -3 q 263 -4 264 -4 q 257 -7 260 -6 q 190 -17 225 -17 q 182 -17 186 -17 l 182 -17 q 174 -17 179 -17 q 167 -16 171 -17 q 158 -15 163 -15 q 153 -14 156 -14 q 153 -14 153 -14 l 151 -14 q 150 -14 151 -14 q 149 -14 149 -14 l 146 -12 q 144 -12 144 -12 q 143 -12 144 -12 q 131 -10 136 -11 q 129 -8 129 -8 q 126 -8 128 -8 q 124 -7 125 -7 q 122 -7 122 -7 q 120 -6 121 -7 q 119 -6 119 -6 q 118 -6 118 -6 q 115 -4 117 -4 q 113 -4 114 -4 q 108 -1 111 -3 q 104 0 107 -1 q 101 1 103 1 q 99 2 100 1 q 99 3 99 3 q 92 6 96 4 l 92 6 q 85 10 88 8 q 79 13 82 11 q 0 96 28 43 l 56 151 q 105 83 68 110 q 190 56 142 56 q 289 94 247 56 q 331 185 331 132 q 318 215 331 199 q 280 253 306 232 q 235 286 254 274 q 183 321 217 299 q 108 372 133 354 q 52 419 82 390 q 13 476 22 449 q 6 514 6 494 q 40 608 6 565 q 46 614 43 611 q 50 619 49 617 q 57 625 54 622 q 71 636 64 631 q 76 640 74 638 q 89 649 83 644 q 96 651 93 650 q 101 654 99 653 q 119 661 110 658 q 133 667 126 664 q 135 667 133 667 q 136 667 136 667 q 138 667 136 667 q 140 668 139 668 q 157 671 149 669 q 190 674 174 674 q 196 674 193 674 l 197 674 q 203 674 201 674 q 208 672 206 674 q 210 672 210 672 q 211 672 210 672 q 213 672 213 672 q 214 672 213 672 l 214 672 q 217 672 215 672 l 217 672 q 218 672 218 672 q 222 671 219 672 l 224 671 q 225 671 224 671 q 228 671 226 671 l 229 669 l 231 669 q 233 669 232 669 q 236 668 235 669 q 238 668 236 668 q 240 668 239 668 q 244 667 243 667 l 246 667 q 247 666 246 667 q 249 665 249 665 q 254 664 253 664 q 258 663 257 663 q 261 661 260 663 l 263 661 q 271 658 267 660 q 275 656 272 657 q 276 655 275 656 q 278 654 278 654 q 280 654 279 654 q 281 653 281 654 q 286 650 285 651 q 288 650 288 650 q 290 649 289 649 q 294 646 293 647 q 297 644 296 644 q 301 642 299 644 q 306 639 303 640 q 306 639 306 639 q 307 638 307 639 q 308 638 307 638 q 318 629 314 633 q 321 626 319 628 q 323 625 322 625 q 325 624 324 625 q 329 619 328 622 q 335 615 332 617 q 336 613 335 614 q 338 610 338 611 q 342 605 340 607 q 347 600 344 603 q 347 599 347 599 q 349 597 349 597 l 324 572 l 296 544 q 272 572 288 560 q 190 601 239 601 q 107 572 140 601 q 75 514 75 546 q 87 483 75 500 q 125 447 99 467 q 169 413 151 426 q 221 378 188 400 q 298 326 272 344 q 353 278 324 308 q 393 221 383 249 q 400 185 400 203 z "},"t":{"ha":347,"x_min":0,"x_max":278,"o":"m 278 657 l 278 588 l 164 588 l 164 0 l 88 0 l 88 588 l 0 588 l 0 657 l 88 657 l 88 908 l 164 908 l 164 657 l 278 657 z "},"u":{"ha":611,"x_min":0,"x_max":542,"o":"m 465 657 l 542 657 l 542 0 l 465 0 l 465 94 q 269 -17 401 -17 q 79 62 158 -17 q 0 253 0 140 l 0 657 l 76 657 l 76 253 q 133 113 76 171 q 270 56 189 56 q 408 113 351 56 q 465 253 465 171 l 465 657 z "},"v":{"ha":704,"x_min":0,"x_max":635,"o":"m 635 657 l 357 0 l 278 0 l 0 657 l 79 657 l 317 93 l 556 657 l 635 657 z "},"w":{"ha":1157,"x_min":0,"x_max":1089,"o":"m 1088 657 l 836 0 l 757 0 l 544 556 l 331 0 l 253 0 l 0 657 l 78 657 l 292 101 l 506 657 l 583 657 l 796 101 l 1010 657 l 1088 657 z "},"x":{"ha":721,"x_min":-1,"x_max":651,"o":"m 374 328 l 651 0 l 556 0 l 325 272 l 96 0 l 0 0 l 278 328 l 0 657 l 96 657 l 325 385 l 556 657 l 651 657 l 374 328 z "},"y":{"ha":707,"x_min":0,"x_max":639,"o":"m 638 657 l 335 51 l 310 0 l 307 -4 l 183 -253 l 97 -253 l 224 0 l 253 58 l 39 563 l 0 657 l 79 657 l 296 144 l 553 657 l 638 657 z "},"z":{"ha":575,"x_min":0,"x_max":506,"o":"m 506 597 l 497 588 l 99 69 l 506 69 l 506 0 l 46 0 l 0 0 l 0 60 l 7 69 l 406 588 l 50 588 l 50 657 l 458 657 l 506 657 l 506 597 z "},"{":{"ha":286,"x_min":0,"x_max":217,"o":"m 144 567 q 89 474 144 513 q 144 381 144 435 l 144 132 q 165 79 144 101 q 217 57 186 57 l 217 -19 q 142 0 176 -19 q 85 55 107 19 q 64 132 64 90 l 64 381 q 45 426 64 407 q 0 444 26 444 l 0 503 q 45 522 26 503 q 64 567 64 540 l 64 815 q 85 892 64 857 q 142 947 107 928 q 217 967 176 967 l 217 890 q 166 869 186 890 q 144 818 146 849 l 144 567 z "},"|":{"ha":126,"x_min":0,"x_max":58,"o":"m 57 -242 l 0 -242 l 0 957 l 57 957 l 57 -242 z "},"}":{"ha":286,"x_min":-1,"x_max":217,"o":"m 71 567 l 71 819 q 49 869 69 849 q 0 890 29 890 l 0 967 q 74 947 40 967 q 131 892 110 928 q 151 815 151 857 l 151 567 q 170 522 151 540 q 217 503 189 503 l 217 444 q 170 426 189 444 q 151 381 151 407 l 151 132 q 131 55 151 90 q 74 0 110 19 q 0 -19 40 -19 l 0 57 q 51 79 31 57 q 71 132 71 101 l 71 381 q 128 474 71 435 q 71 567 71 513 z "}," ":{"ha":357,"x_min":0,"x_max":0,"o":""},"¡":{"ha":208,"x_min":0,"x_max":140,"o":"m 119 595 q 109 585 119 595 q 69 575 99 575 q 20 595 40 575 q 0 644 0 615 q 20 694 0 674 q 69 714 40 714 q 119 694 99 714 q 139 644 139 674 q 119 595 139 615 m 35 424 l 104 424 q 108 171 107 233 l 108 -253 l 32 -253 q 32 171 31 65 q 35 424 35 424 z "},"¬":{"ha":447,"x_min":0,"x_max":378,"o":"m 0 657 l 378 657 l 378 583 l 378 482 l 297 482 l 297 583 l 0 583 l 0 657 z "},"°":{"ha":372,"x_min":-1,"x_max":304,"o":"m 44 922 q 67 944 44 922 q 151 967 89 967 q 258 922 214 967 q 303 815 303 878 q 258 708 303 753 q 151 664 214 664 q 44 708 89 664 q 0 815 0 753 q 44 922 0 878 m 207 870 q 195 882 207 870 q 151 893 183 893 q 96 870 119 893 q 72 815 72 847 q 96 759 72 782 q 151 736 119 736 q 207 759 183 736 q 231 815 231 782 q 207 870 231 847 z "},"¿":{"ha":575,"x_min":0,"x_max":506,"o":"m 0 0 q 60 177 0 101 q 213 268 121 253 l 213 424 l 293 424 l 293 235 q 281 207 293 218 q 253 196 269 196 q 213 190 232 196 q 115 122 153 175 q 76 0 76 69 q 128 -137 76 -81 q 253 -194 179 -194 q 373 -142 322 -194 q 428 -14 424 -89 l 506 0 q 431 -192 506 -112 q 252 -271 357 -271 q 74 -192 147 -271 q 0 0 0 -112 m 246 575 q 301 595 278 572 q 322 651 325 618 q 302 694 319 676 q 260 714 285 711 q 203 694 226 717 q 183 638 179 671 q 203 595 186 613 q 246 575 221 578 z "},"Á":{"ha":769,"x_min":-1,"x_max":700,"o":"m 436 1083 l 350 1017 l 261 1017 l 331 1083 l 408 1149 l 515 1149 l 436 1083 m 183 308 l 517 308 l 350 807 l 183 308 m 383 947 l 700 0 l 618 0 l 600 57 l 540 235 l 160 235 l 100 57 l 81 0 l 0 0 l 315 947 l 383 947 z "},"Ä":{"ha":769,"x_min":-1,"x_max":700,"o":"m 284 1032 q 277 1024 284 1032 q 248 1017 269 1017 q 212 1032 226 1017 q 197 1068 197 1047 q 212 1104 197 1089 q 248 1119 226 1119 q 284 1104 269 1119 q 299 1068 299 1089 q 284 1032 299 1047 m 488 1032 q 480 1024 488 1032 q 451 1017 472 1017 q 415 1032 431 1017 q 400 1068 400 1047 q 415 1104 400 1089 q 451 1119 431 1119 q 488 1104 472 1119 q 503 1068 503 1089 q 488 1032 503 1047 m 183 308 l 517 308 l 350 807 l 183 308 m 383 947 l 700 0 l 618 0 l 600 57 l 540 235 l 160 235 l 100 57 l 81 0 l 0 0 l 315 947 l 383 947 z "},"É":{"ha":644,"x_min":0,"x_max":575,"o":"m 328 1083 l 240 1017 l 151 1017 l 221 1083 l 299 1149 l 406 1149 l 328 1083 m 81 72 l 575 72 l 575 0 l 81 0 l 19 0 l 0 0 l 0 947 l 19 947 l 81 947 l 524 947 l 524 875 l 81 875 l 81 561 l 474 561 l 474 488 l 81 488 l 81 72 z "},"Ë":{"ha":644,"x_min":0,"x_max":575,"o":"m 425 1032 q 417 1024 425 1032 q 389 1017 410 1017 q 353 1032 368 1017 q 338 1068 338 1047 q 353 1104 338 1089 q 389 1119 368 1119 q 425 1104 410 1119 q 440 1068 440 1089 q 425 1032 440 1047 m 222 1032 q 215 1024 222 1032 q 185 1017 207 1017 q 149 1032 164 1017 q 135 1068 135 1047 q 149 1104 135 1089 q 185 1119 164 1119 q 222 1104 207 1119 q 238 1068 238 1089 q 222 1032 238 1047 m 81 72 l 575 72 l 575 0 l 81 0 l 19 0 l 0 0 l 0 947 l 19 947 l 81 947 l 524 947 l 524 875 l 81 875 l 81 561 l 474 561 l 474 488 l 81 488 l 81 72 z "},"Í":{"ha":324,"x_min":0,"x_max":254,"o":"m 19 0 l 19 947 l 100 947 l 100 0 l 19 0 m 147 1149 l 254 1149 l 176 1083 l 89 1017 l 0 1017 l 69 1083 l 147 1149 z "},"Ï":{"ha":375,"x_min":0,"x_max":307,"o":"m 219 1104 q 226 1112 219 1104 q 255 1119 233 1119 q 291 1104 276 1119 q 306 1068 306 1089 q 291 1032 306 1047 q 255 1017 276 1017 q 219 1032 233 1017 q 204 1068 204 1047 q 219 1104 204 1089 m 15 1104 q 23 1112 15 1104 q 51 1119 31 1119 q 88 1104 72 1119 q 103 1068 103 1089 q 88 1032 103 1047 q 51 1017 72 1017 q 15 1032 31 1017 q 0 1068 0 1047 q 15 1104 0 1089 m 113 0 l 113 947 l 193 947 l 193 0 l 113 0 z "},"Ñ":{"ha":667,"x_min":0,"x_max":599,"o":"m 188 1051 l 167 1071 l 163 1076 l 167 1082 q 249 1125 206 1125 q 322 1100 269 1125 q 356 1092 339 1092 q 400 1111 379 1092 l 406 1117 l 410 1111 l 431 1090 l 436 1086 l 431 1081 q 354 1042 396 1042 q 318 1050 338 1042 q 282 1067 300 1057 q 247 1074 264 1074 q 199 1051 221 1074 l 193 1046 l 188 1051 m 517 947 l 597 947 l 597 0 l 543 0 l 517 43 l 81 757 l 81 0 l 0 0 l 0 947 l 54 947 l 81 904 l 517 190 l 517 947 z "},"Ó":{"ha":853,"x_min":-1,"x_max":785,"o":"m 440 1083 l 353 1017 l 264 1017 l 333 1083 l 411 1149 l 518 1149 l 440 1083 m 703 372 l 703 575 q 613 798 703 706 q 392 890 522 890 q 172 798 263 890 q 81 575 81 706 l 81 372 q 172 149 81 242 q 392 57 263 57 q 613 149 522 57 q 703 372 703 242 m 115 851 q 172 909 115 851 q 392 967 229 967 q 669 851 554 967 q 783 575 783 736 l 783 372 q 669 96 783 211 q 392 -19 554 -19 q 115 96 229 -19 q 0 372 0 211 l 0 575 q 115 851 0 736 z "},"Ö":{"ha":853,"x_min":-1,"x_max":785,"o":"m 530 1032 q 523 1024 530 1032 q 494 1017 515 1017 q 457 1032 472 1017 q 442 1068 442 1047 q 457 1104 442 1089 q 494 1119 472 1119 q 530 1104 515 1119 q 544 1068 544 1089 q 530 1032 544 1047 m 326 1032 q 319 1024 326 1032 q 290 1017 311 1017 q 254 1032 269 1017 q 239 1068 239 1047 q 254 1104 239 1089 q 290 1119 269 1119 q 326 1104 311 1119 q 342 1068 342 1089 q 326 1032 342 1047 m 703 372 l 703 575 q 613 798 703 706 q 392 890 522 890 q 172 798 263 890 q 81 575 81 706 l 81 372 q 172 149 81 242 q 392 57 263 57 q 613 149 522 57 q 703 372 703 242 m 115 851 q 172 909 115 851 q 392 967 229 967 q 669 851 554 967 q 783 575 783 736 l 783 372 q 669 96 783 211 q 392 -19 554 -19 q 115 96 229 -19 q 0 372 0 211 l 0 575 q 115 851 0 736 z "},"Ú":{"ha":751,"x_min":-1,"x_max":683,"o":"m 682 322 q 582 81 682 181 q 341 -19 482 -19 q 100 81 200 -19 q 0 322 0 181 l 0 947 l 81 947 l 81 322 q 156 135 81 213 q 341 57 232 57 q 526 135 450 57 q 601 322 601 213 l 601 947 l 682 947 l 682 322 m 390 1083 l 303 1017 l 214 1017 l 283 1083 l 361 1149 l 468 1149 l 390 1083 z "},"Ü":{"ha":751,"x_min":0,"x_max":683,"o":"m 479 1032 q 472 1024 479 1032 q 443 1017 464 1017 q 407 1032 422 1017 q 392 1068 392 1047 q 407 1104 392 1089 q 443 1119 422 1119 q 479 1104 464 1119 q 494 1068 494 1089 q 479 1032 494 1047 m 276 1032 q 268 1024 276 1032 q 240 1017 261 1017 q 203 1032 218 1017 q 189 1068 189 1047 q 203 1104 189 1089 q 240 1119 218 1119 q 276 1104 261 1119 q 290 1068 290 1089 q 276 1032 290 1047 m 682 322 q 582 81 682 181 q 341 -19 482 -19 q 100 81 200 -19 q 0 322 0 181 l 0 947 l 81 947 l 81 322 q 156 135 81 213 q 341 57 232 57 q 526 135 450 57 q 601 322 601 213 l 601 947 l 682 947 l 682 322 z "},"á":{"ha":715,"x_min":-1,"x_max":647,"o":"m 392 871 l 335 796 l 269 796 l 314 871 l 364 947 l 442 947 l 392 871 m 569 278 l 569 379 q 497 535 569 469 q 321 601 425 601 q 146 535 218 601 q 76 379 76 469 l 76 278 q 146 122 76 186 q 321 56 218 56 q 497 122 425 56 q 569 278 569 186 m 569 657 l 646 657 l 646 0 l 569 0 l 569 94 q 460 13 525 43 q 321 -17 394 -17 q 94 69 188 -17 q 0 278 0 156 l 0 379 q 94 587 0 500 q 321 674 188 674 q 460 644 394 674 q 569 561 525 614 l 569 657 z "},"ä":{"ha":715,"x_min":0,"x_max":647,"o":"m 258 828 q 250 820 258 828 q 222 813 243 813 q 185 828 200 813 q 169 865 169 843 q 185 901 169 886 q 222 915 200 915 q 258 901 243 915 q 272 865 272 886 q 258 828 272 843 m 461 828 q 453 820 461 828 q 425 813 446 813 q 389 828 404 813 q 374 865 374 843 q 389 901 374 886 q 425 915 404 915 q 461 901 446 915 q 476 865 476 886 q 461 828 476 843 m 569 278 l 569 379 q 497 535 569 469 q 321 601 425 601 q 146 535 218 601 q 76 379 76 469 l 76 278 q 146 122 76 186 q 321 56 218 56 q 497 122 425 56 q 569 278 569 186 m 569 657 l 646 657 l 646 0 l 569 0 l 569 94 q 460 13 525 43 q 321 -17 394 -17 q 94 69 188 -17 q 0 278 0 156 l 0 379 q 94 587 0 500 q 321 674 188 674 q 460 644 394 674 q 569 561 525 614 l 569 657 z "},"é":{"ha":714,"x_min":0,"x_max":644,"o":"m 392 871 l 335 796 l 269 796 l 314 871 l 364 947 l 442 947 l 392 871 m 568 388 q 524 506 564 453 q 497 535 513 521 q 322 601 425 601 q 147 535 219 601 q 76 388 81 474 l 568 388 m 644 388 q 644 379 644 385 l 644 319 l 625 319 l 76 319 l 76 279 q 147 122 76 188 q 322 56 219 56 q 471 101 406 56 l 524 49 q 322 -17 436 -17 q 94 70 189 -17 q 0 279 0 157 l 0 379 q 94 587 0 500 q 322 674 189 674 q 524 608 436 674 q 610 510 578 568 q 644 388 642 453 z "},"ë":{"ha":714,"x_min":0,"x_max":644,"o":"m 257 828 q 249 820 257 828 q 220 813 242 813 q 184 828 199 813 q 169 865 169 843 q 184 901 169 886 q 220 915 199 915 q 257 901 242 915 q 272 865 272 886 q 257 828 272 843 m 460 828 q 452 820 460 828 q 424 813 444 813 q 388 828 403 813 q 372 865 372 843 q 388 901 372 886 q 424 915 403 915 q 460 901 444 915 q 475 865 475 886 q 460 828 475 843 m 568 388 q 524 506 564 453 q 497 535 513 521 q 322 601 425 601 q 147 535 219 601 q 76 388 81 474 l 568 388 m 644 388 q 644 379 644 385 l 644 319 l 625 319 l 76 319 l 76 279 q 147 122 76 188 q 322 56 219 56 q 471 101 406 56 l 524 49 q 322 -17 436 -17 q 94 70 189 -17 q 0 279 0 157 l 0 379 q 94 587 0 500 q 322 674 189 674 q 524 608 436 674 q 610 510 578 568 q 644 388 642 453 z "},"í":{"ha":242,"x_min":-1,"x_max":174,"o":"m 94 947 l 172 947 l 122 871 l 64 796 l 0 796 l 43 871 l 94 947 m 19 0 l 19 657 l 96 657 l 96 0 l 19 0 z "},"ï":{"ha":375,"x_min":0,"x_max":307,"o":"m 15 901 q 23 908 15 901 q 51 915 31 915 q 88 901 72 915 q 103 865 103 886 q 88 828 103 843 q 51 813 72 813 q 15 828 31 813 q 0 865 0 843 q 15 901 0 886 m 219 901 q 226 908 219 901 q 255 915 233 915 q 291 901 276 915 q 306 865 306 886 q 291 828 306 843 q 255 813 276 813 q 219 828 233 813 q 204 865 204 843 q 219 901 204 886 m 115 0 l 115 657 l 192 657 l 192 0 l 115 0 z "},"ñ":{"ha":611,"x_min":0,"x_max":542,"o":"m 542 404 l 542 0 l 465 0 l 465 404 q 409 544 465 486 q 272 601 353 601 q 133 544 190 601 q 76 404 76 486 l 76 0 l 0 0 l 0 657 l 76 657 l 76 561 q 272 674 140 674 q 463 594 383 674 q 542 404 542 515 m 160 850 l 139 869 l 133 875 l 139 881 q 221 922 176 922 q 294 899 242 922 q 328 890 311 890 q 371 910 351 890 l 376 914 l 382 910 l 403 889 l 407 883 l 403 878 q 326 840 367 840 q 290 849 310 840 q 253 864 272 856 q 219 872 236 872 q 169 850 193 872 l 165 844 l 160 850 z "},"ó":{"ha":714,"x_min":0,"x_max":644,"o":"m 393 871 l 336 796 l 272 796 l 315 871 l 365 947 l 444 947 l 393 871 m 568 303 l 568 353 q 496 528 568 456 q 322 601 424 601 q 148 528 219 601 q 76 353 76 456 l 76 303 q 148 128 76 200 q 322 56 219 56 q 496 128 424 56 q 568 303 568 200 m 94 580 q 142 627 94 580 q 322 674 189 674 q 549 580 454 674 q 644 353 644 486 l 644 303 q 549 77 644 171 q 322 -17 454 -17 q 94 77 189 -17 q 0 303 0 171 l 0 353 q 94 580 0 486 z "},"ö":{"ha":714,"x_min":0,"x_max":644,"o":"m 257 828 q 249 820 257 828 q 220 813 242 813 q 184 828 199 813 q 169 865 169 843 q 184 901 169 886 q 220 915 199 915 q 257 901 242 915 q 272 865 272 886 q 257 828 272 843 m 460 828 q 452 820 460 828 q 424 813 444 813 q 388 828 403 813 q 372 865 372 843 q 388 901 372 886 q 424 915 403 915 q 460 901 444 915 q 475 865 475 886 q 460 828 475 843 m 568 303 l 568 353 q 496 528 568 456 q 322 601 424 601 q 148 528 219 601 q 76 353 76 456 l 76 303 q 148 128 76 200 q 322 56 219 56 q 496 128 424 56 q 568 303 568 200 m 94 580 q 142 627 94 580 q 322 674 189 674 q 549 580 454 674 q 644 353 644 486 l 644 303 q 549 77 644 171 q 322 -17 454 -17 q 94 77 189 -17 q 0 303 0 171 l 0 353 q 94 580 0 486 z "},"ú":{"ha":611,"x_min":0,"x_max":542,"o":"m 342 872 l 285 796 l 221 796 l 264 872 l 314 947 l 393 947 l 342 872 m 465 657 l 542 657 l 542 0 l 465 0 l 465 94 q 269 -17 401 -17 q 79 62 158 -17 q 0 253 0 140 l 0 657 l 76 657 l 76 253 q 133 113 76 171 q 270 56 189 56 q 408 113 351 56 q 465 253 465 171 l 465 657 z "},"ü":{"ha":611,"x_min":0,"x_max":542,"o":"m 206 828 q 198 820 206 828 q 169 813 190 813 q 133 828 147 813 q 118 865 118 843 q 133 901 118 886 q 169 915 147 915 q 206 901 190 915 q 221 865 221 886 q 206 828 221 843 m 408 828 q 401 820 408 828 q 372 813 393 813 q 336 828 351 813 q 321 865 321 843 q 336 901 321 886 q 372 915 351 915 q 408 901 393 915 q 424 865 424 886 q 408 828 424 843 m 465 657 l 542 657 l 542 0 l 465 0 l 465 94 q 269 -17 401 -17 q 79 62 158 -17 q 0 253 0 140 l 0 657 l 76 657 l 76 253 q 133 113 76 171 q 270 56 189 56 q 408 113 351 56 q 465 253 465 171 l 465 657 z "}}}
